<svg preserveAspectRatio="none" width="100%" height="100%" overflow="visible" style="display: block;" viewBox="0 0 43.94 43.94" fill="none" xmlns="http://www.w3.org/2000/svg">
<g id="Frame 279">
<path id="Vector" d="M21.97 43.47C33.8441 43.47 43.47 33.8441 43.47 21.97C43.47 10.0959 33.8441 0.47 21.97 0.47C10.0959 0.47 0.47 10.0959 0.47 21.97C0.47 33.8441 10.0959 43.47 21.97 43.47Z" fill="var(--fill-0, #FFDC45)"/>
<path id="Vector_2" d="M37.2449 37.1024C33.347 41.0326 27.9429 43.4696 21.9699 43.4696C15.997 43.4696 10.5929 41.0326 6.69498 37.1024C8.46295 31.7597 12.9556 27.6581 18.5245 26.4428C15.412 25.108 13.2303 22.0116 13.2303 18.4111C13.2303 13.5855 17.1444 9.67142 21.9699 9.67142C26.7955 9.67142 30.7096 13.5855 30.7096 18.4111C30.7096 22.0116 28.5279 25.108 25.4154 26.4428C30.9843 27.6581 35.4769 31.7597 37.2449 37.1024Z" fill="var(--fill-0, black)"/>
<path id="Vector_3" d="M43.47 21.97C43.47 33.8439 33.8443 43.47 21.97 43.47C10.0957 43.47 0.47 33.8439 0.47 21.97C0.47 10.0957 10.0957 0.47 21.97 0.47C33.8443 0.47 43.47 10.0957 43.47 21.97Z" stroke="var(--stroke-0, black)" stroke-width="0.94"/>
</g>
</svg>
