<svg preserveAspectRatio="none" width="100%" height="100%" overflow="visible" style="display: block;" viewBox="0 0 51 43.6391" fill="none" xmlns="http://www.w3.org/2000/svg">
<g id="Frame 257">
<path id="Vector" d="M36.7445 0.101236H9.85813C4.41361 0.101236 0 4.51581 0 9.96152V10.7649C0 16.2107 4.41361 20.6252 9.85813 20.6252H36.7445C42.189 20.6252 46.6026 16.2107 46.6026 10.7649V9.96152C46.6026 4.51581 42.189 0.101236 36.7445 0.101236Z" fill="var(--fill-0, #FFDC45)"/>
<path id="Vector_2" d="M27.281 7.90156L22.2925 5.00318C20.4083 3.91014 18.0556 5.27774 18.0556 7.46383V13.258C18.0556 15.4467 20.4109 16.8143 22.2925 15.7186L27.281 12.8203C29.1652 11.7272 29.1652 8.98942 27.281 7.89638V7.90156Z" fill="var(--fill-0, black)"/>
<path id="Vector_3" d="M32.272 0.470734H39.0907C43.2282 0.470734 46.5823 3.8428 46.5823 8.00247" stroke="var(--stroke-0, black)" stroke-width="0.941468" stroke-linecap="round" stroke-linejoin="round"/>
<path id="Vector_4" d="M25.7632 29.3186L28.2722 36.615C30.9573 42.6027 37.9882 45.2812 43.9759 42.5961C49.9636 39.9111 52.6421 32.8802 49.957 26.8925L47.9056 22.3179C47.0262 20.3577 44.7253 19.4812 42.7652 20.3596L28.7316 23.8543C26.3309 24.4522 24.9582 26.9791 25.7623 29.3186H25.7632Z" fill="var(--fill-0, #FF6A8D)"/>
<path id="Vector_5" d="M28.5828 26.27L31.9138 22.5285C31.1286 20.7783 31.9118 18.7232 33.662 17.938C35.4122 17.1528 37.4674 17.936 38.2526 19.6862L46.5545 38.202L28.5828 26.27Z" fill="var(--fill-0, #FF6A8D)"/>
<path id="Vector_6" d="M43.085 20.5642L48.1474 31.8549L41.8084 34.6971L36.7459 23.4064C35.9617 21.6573 36.745 19.6006 38.494 18.8164C40.2432 18.0322 42.3008 18.8151 43.085 20.5642Z" fill="var(--fill-0, #FF6A8D)"/>
<path id="Vector_7" d="M43.7339 20.0875C43.7339 20.0875 42.9468 20.2814 42.8649 20.1496C42.2605 19.1771 41.2277 18.5877 40.129 18.5199C39.5858 18.486 39.0275 18.5802 38.4965 18.8184C38.2988 18.9069 38.1124 19.0123 37.9401 19.1319C37.3263 18.2422 36.3396 17.7046 35.2946 17.6397C34.7513 17.6058 34.193 17.6999 33.6621 17.9381C32.5681 18.4286 31.8526 19.4162 31.6605 20.514" fill="var(--fill-0, #FF6A8D)"/>
<path id="Vector_8" d="M43.7339 20.0875C43.7339 20.0875 42.9468 20.2814 42.8649 20.1496C42.2605 19.1771 41.2277 18.5877 40.129 18.5199C39.5858 18.486 39.0275 18.5802 38.4965 18.8184C38.2988 18.9069 38.1124 19.0123 37.9401 19.1319C37.3263 18.2422 36.3396 17.7046 35.2946 17.6397C34.7513 17.6058 34.193 17.6999 33.6621 17.9381C32.5681 18.4286 31.8526 19.4162 31.6605 20.514" stroke="var(--stroke-0, black)" stroke-width="0.941468" stroke-linecap="round" stroke-linejoin="round"/>
<path id="Vector_9" d="M29.7992 30.1789L24.4309 12.9331C23.851 11.1151 24.2869 8.70398 25.894 8.16641C26.9776 7.80394 28.18 8.51946 28.4972 9.27452L33.1999 20.6079" fill="var(--fill-0, #FF6A8D)"/>
<path id="Vector_10" d="M29.7992 30.1789L24.4309 12.9331C23.851 11.1151 24.2869 8.70398 25.894 8.16641C26.9776 7.80394 28.18 8.51946 28.4972 9.27452L33.1999 20.6079" stroke="var(--stroke-0, black)" stroke-width="0.941468" stroke-linecap="round" stroke-linejoin="round"/>
</g>
</svg>
