<svg width="136" height="136" viewBox="0 0 136 136" fill="none" xmlns="http://www.w3.org/2000/svg">
  <!-- Body outline (dark brown) -->
  <g transform="translate(21.25, 0)">
    <path d="M0 55.25C0 48.2084 5.70837 42.5 12.75 42.5V34C12.75 15.2223 27.9723 0 46.75 0C65.5277 0 80.75 15.2223 80.75 34V42.5C87.7916 42.5 93.5 48.2084 93.5 55.25V123.25C93.5 130.292 87.7916 136 80.75 136H12.75C5.70837 136 0 130.292 0 123.25V55.25Z" fill="#815C13"/>
  </g>

  <!-- Bottom accent bar (gold) -->
  <g transform="translate(29.75, 110.5)">
    <path d="M0 4.25C0 1.90279 1.90279 0 4.25 0H72.25C74.5972 0 76.5 1.90279 76.5 4.25V12.75C76.5 15.0972 74.5972 17 72.25 17H4.25C1.90279 17 0 15.0972 0 12.75V4.25Z" fill="#FEAA01"/>
  </g>

  <!-- Shackle (gray) -->
  <g transform="translate(42.5, 17)">
    <path fill-rule="evenodd" clip-rule="evenodd" d="M25.5 17C20.8056 17 17 20.8056 17 25.5V42.5H0V25.5C0 11.4167 11.4167 0 25.5 0C39.5833 0 51 11.4167 51 25.5V42.5H34V25.5C34 20.8056 30.1944 17 25.5 17Z" fill="#7E8FA0"/>
  </g>

  <!-- Body (gold gradient) -->
  <g transform="translate(29.75, 51)">
    <path d="M0 4.25C0 1.90279 1.90279 0 4.25 0H72.25C74.5972 0 76.5 1.90279 76.5 4.25V63.75C76.5 66.0972 74.5972 68 72.25 68H4.25C1.90279 68 0 66.0972 0 63.75V4.25Z" fill="url(#lockGradient)"/>
  </g>

  <!-- Shackle highlight (light gray) -->
  <g transform="translate(42.5, 8.5)">
    <path fill-rule="evenodd" clip-rule="evenodd" d="M25.5 17C20.8056 17 17 20.8056 17 25.5V42.5H0V25.5C0 11.4167 11.4167 0 25.5 0C39.5833 0 51 11.4167 51 25.5V42.5H34V25.5C34 20.8056 30.1944 17 25.5 17Z" fill="#F0F2F4"/>
  </g>

  <!-- Keyhole shadow -->
  <g transform="translate(55.25, 68)">
    <path d="M18.6777 27.9607C18.1729 25.9416 19.2656 23.9071 20.8695 22.5808C23.6978 20.2422 25.5 16.7066 25.5 12.75C25.5 5.70837 19.7916 0 12.75 0C5.70837 0 0 5.70837 0 12.75C0 16.7066 1.8022 20.2422 4.63049 22.5808C6.23445 23.9071 7.32711 25.9416 6.82233 27.9607L5.57019 32.9692C4.8996 35.6516 6.92837 38.25 9.6933 38.25H15.8067C18.5716 38.25 20.6004 35.6516 19.9298 32.9692L18.6777 27.9607Z" fill="#815C13"/>
  </g>

  <!-- Keyhole circle (gold) -->
  <g transform="translate(55.25, 68)">
    <path d="M24.7745 17C25.2443 15.6707 25.5 14.2402 25.5 12.75C25.5 5.70837 19.7916 0 12.75 0C5.70837 0 0 5.70837 0 12.75C0 14.2402 0.255655 15.6707 0.725499 17C2.4758 12.0479 7.19857 8.5 12.75 8.5C18.3014 8.5 23.0242 12.0479 24.7745 17Z" fill="#FEAA01"/>
  </g>

  <defs>
    <linearGradient id="lockGradient" x1="38.25" y1="0" x2="38.25" y2="68" gradientUnits="userSpaceOnUse">
      <stop stop-color="#FFE7B8"/>
      <stop offset="1" stop-color="#FFD175"/>
    </linearGradient>
  </defs>
</svg>
