<svg preserveAspectRatio="none" width="100%" height="100%" overflow="visible" style="display: block;" viewBox="0 0 43.5574 43.5579" fill="none" xmlns="http://www.w3.org/2000/svg">
<g id="Frame 256">
<path id="Vector" d="M34.7193 31.0453L31.0448 34.7197C30.0935 35.6711 30.0935 37.2135 31.0448 38.1648L35.7244 42.8444C36.6758 43.7958 38.2181 43.7958 39.1694 42.8444L42.8439 39.17C43.7953 38.2187 43.7953 36.6762 42.8439 35.7249L38.1643 31.0453C37.213 30.094 35.6706 30.094 34.7193 31.0453Z" fill="var(--fill-0, #005DFF)"/>
<path id="Vector_2" d="M31.0261 31.0271L33.9003 33.9001" stroke="var(--stroke-0, black)" stroke-width="1.11488" stroke-linecap="round" stroke-linejoin="round"/>
<path id="Vector_3" d="M18.4056 36.2537C28.2628 36.2537 36.2537 28.2628 36.2537 18.4056C36.2537 8.54834 28.2628 0.55744 18.4056 0.55744C8.54835 0.55744 0.55744 8.54834 0.55744 18.4056C0.55744 28.2628 8.54835 36.2537 18.4056 36.2537Z" fill="var(--fill-0, #E6E6E6)"/>
<path id="Vector_4" d="M18.4056 36.2537C28.2628 36.2537 36.2537 28.2628 36.2537 18.4056C36.2537 8.54834 28.2628 0.55744 18.4056 0.55744C8.54835 0.55744 0.55744 8.54834 0.55744 18.4056C0.55744 28.2628 8.54835 36.2537 18.4056 36.2537Z" stroke="var(--stroke-0, black)" stroke-width="1.11488" stroke-linecap="round" stroke-linejoin="round"/>
<path id="Vector_5" d="M28.6565 28.6566C23.1231 34.1911 14.1506 34.1911 8.6171 28.6566C7.54255 27.5821 6.67596 26.3773 6.01947 25.0926C4.905 22.9194 4.39136 20.5182 4.47539 18.1349C4.54682 16.0856 5.06151 14.05 6.01947 12.1813C6.67596 10.8967 7.54255 9.69193 8.6171 8.61739C14.1506 3.08292 23.1231 3.08292 28.6565 8.61739C34.1911 14.1508 34.1911 23.1232 28.6565 28.6566Z" fill="var(--fill-0, white)"/>
</g>
</svg>
