<svg preserveAspectRatio="none" width="100%" height="100%" overflow="visible" style="display: block;" viewBox="0 0 44.5572 43.2746" fill="none" xmlns="http://www.w3.org/2000/svg">
<g id="Frame 255">
<path id="Vector" d="M30.0012 17.6637H23.4893V43.2746H30.0012V17.6637Z" fill="var(--fill-0, #FFDC45)"/>
<path id="Vector_2" d="M14.8034 7.44236H34.1764C39.5986 7.44236 44 11.8439 44 17.266V27.5798C44 29.4429 42.4879 30.9551 40.6248 30.9551H8.35387C6.49078 30.9551 4.97868 29.4429 4.97868 27.5798V17.266C4.97868 11.8439 9.38013 7.44236 14.8023 7.44236H14.8034Z" fill="var(--fill-0, #FFDC45)"/>
<path id="Vector_3" d="M17.0932 7.44236H34.7135C39.8426 7.44236 44 11.5998 44 16.7289V28.341C44 29.7851 42.8289 30.9562 41.3848 30.9562H25.3045" stroke="var(--stroke-0, black)" stroke-width="1.11429" stroke-linecap="round" stroke-linejoin="round"/>
<path id="Vector_4" d="M14.6229 9.60184C18.6288 9.60184 21.8803 12.8546 21.8803 16.8593V30.9551H7.3644V16.8593C7.3644 12.8534 10.617 9.60184 14.6218 9.60184H14.6229Z" fill="var(--fill-0, black)"/>
<path id="Vector_5" d="M6.23004 12.6962C11.0092 12.6962 15.3238 15.5601 17.1791 19.9648L21.8089 30.9551H7.5371C5.72527 30.9551 4.0906 29.8698 3.38637 28.1995L0.49479 21.3343C-1.23347 17.2326 1.77845 12.6952 6.23004 12.6952V12.6962Z" fill="var(--fill-0, #FFDC45)"/>
<path id="Vector_6" d="M6.25345 12.7654C11.0148 12.7654 15.4096 15.54 17.2582 19.9281L21.6786 30.4693" stroke="var(--stroke-0, black)" stroke-width="1.11429" stroke-linecap="round" stroke-linejoin="round"/>
<path id="Vector_7" d="M30.4848 5.74186e-06H28.4267C26.9607 5.74186e-06 25.7725 1.1884 25.7725 2.65425V8.76167C25.7725 10.2276 26.9607 11.4159 28.4267 11.4159H30.4848C31.9506 11.4159 33.139 10.2276 33.139 8.76167V2.65425C33.139 1.1884 31.9506 5.74186e-06 30.4848 5.74186e-06Z" fill="var(--fill-0, #FF6A8D)"/>
<path id="Vector_8" d="M29.5321 6.19557C29.5321 5.15739 28.6905 4.31576 27.6523 4.31576C26.6141 4.31576 25.7725 5.15739 25.7725 6.19557V23.2208C25.7725 24.259 26.6141 25.1006 27.6523 25.1006C28.6905 25.1006 29.5321 24.259 29.5321 23.2208V6.19557Z" fill="var(--fill-0, #FF6A8D)"/>
</g>
</svg>
