<svg preserveAspectRatio="none" width="100%" height="100%" overflow="visible" style="display: block;" viewBox="0 0 204 204" fill="none" xmlns="http://www.w3.org/2000/svg">
<g id="Avatar 1">
<path id="Vector" d="M204 102C204 133.599 189.635 161.844 167.065 180.551C149.415 195.202 126.737 204 102 204C77.2636 204 54.5935 195.194 36.9432 180.559C14.3811 161.86 0.000234604 133.615 0.000234604 102C0.000234604 45.6718 45.672 0 102 0C158.328 0 204 45.6718 204 102Z" fill="var(--fill-0, #FF6A8D)"/>
<path id="Vector_2" d="M167.068 180.551C149.417 195.202 126.739 204 102.003 204C77.2662 204 54.5961 195.194 36.9458 180.559L50.7561 165.423C51.5194 164.582 52.6761 164.25 53.7633 164.543H150.25C151.337 164.25 152.494 164.582 153.25 165.423L167.068 180.551Z" fill="var(--fill-0, black)"/>
<path id="Vector_3" d="M102.003 178.133C145.024 178.133 179.899 151.74 179.899 119.183C179.899 86.6264 145.024 60.2335 102.003 60.2335C58.9827 60.2335 24.1078 86.6264 24.1078 119.183C24.1078 151.74 58.9827 178.133 102.003 178.133Z" fill="var(--fill-0, #FFDC45)"/>
<path id="Vector_4" d="M82.9975 103.037C86.1575 103.037 88.719 100.476 88.719 97.3158C88.719 94.1558 86.1575 91.5943 82.9975 91.5943C79.8376 91.5943 77.276 94.1558 77.276 97.3158C77.276 100.476 79.8376 103.037 82.9975 103.037Z" fill="var(--fill-0, black)"/>
<path id="Vector_5" d="M140.141 103.037C143.301 103.037 145.862 100.476 145.862 97.3158C145.862 94.1558 143.301 91.5943 140.141 91.5943C136.981 91.5943 134.419 94.1558 134.419 97.3158C134.419 100.476 136.981 103.037 140.141 103.037Z" fill="var(--fill-0, black)"/>
<path id="Vector_6" d="M27.991 51.6726V100.321L90.2643 64.3648L48.1319 40.0445C39.1795 34.8782 27.9833 41.34 27.9833 51.6726H27.991Z" fill="var(--fill-0, #FFDC45)"/>
<path id="Vector_7" d="M147.494 39.4187L105.361 63.7389L167.635 99.6949V51.0468C167.635 40.7064 156.446 34.2447 147.486 39.4187H147.494Z" fill="var(--fill-0, #FFDC45)"/>
<path id="Vector_8" d="M33.2302 56.8014V75.9399C33.2302 78.6464 36.1603 80.3428 38.5121 78.9857L58.2366 67.5967C60.5808 66.2396 60.5808 62.8545 58.2366 61.505L41.6582 51.9358C37.9107 49.7767 33.2302 52.4756 33.2302 56.8014Z" fill="var(--fill-0, #FF6A8D)"/>
<path id="Vector_9" d="M153.981 51.3103L137.403 60.8796C135.059 62.2367 135.059 65.6218 137.403 66.9712L157.127 78.3602C159.472 79.7174 162.409 78.021 162.409 75.3145V56.1759C162.409 51.8501 157.729 49.1513 153.981 51.3103Z" fill="var(--fill-0, #FF6A8D)"/>
<path id="Vector_10" d="M114.964 113.967L119.274 106.503C120.785 103.889 118.896 100.619 115.874 100.619H107.253C104.23 100.619 102.341 103.889 103.852 106.503L108.163 113.967C109.674 116.581 113.445 116.581 114.956 113.967H114.964Z" fill="var(--fill-0, black)"/>
<path id="Vector_11" d="M117.768 120.518L111.569 113.995L105.361 120.518" stroke="var(--stroke-0, black)" stroke-width="7.71092" stroke-linecap="round" stroke-linejoin="round"/>
</g>
</svg>
