<svg preserveAspectRatio="none" width="100%" height="100%" overflow="visible" style="display: block;" viewBox="0 0 62.0002 62" fill="none" xmlns="http://www.w3.org/2000/svg">
<g id="Avatar 1">
<path id="Vector" d="M62.0002 31C62.0002 40.6037 57.6343 49.188 50.7748 54.8734C45.4105 59.326 38.5182 62 31.0002 62C23.4822 62 16.5923 59.3237 11.228 54.8757C4.37089 49.1927 0.000234604 40.6084 0.000234604 31C0.000234604 13.8806 13.8809 0 31.0002 0C48.1196 0 62.0002 13.8806 62.0002 31Z" fill="var(--fill-0, #D7D7D7)"/>
<path id="Vector_2" d="M50.7759 54.873C45.4116 59.3257 38.5193 61.9997 31.0013 61.9997C23.4833 61.9997 16.5934 59.3234 11.2291 54.8754L15.4264 50.2751C15.6584 50.0196 16.0099 49.9188 16.3403 50.0079H45.6647C45.9951 49.9188 46.3467 50.0196 46.5763 50.2751L50.7759 54.873Z" fill="var(--fill-0, #363636)"/>
<path id="Vector_3" d="M31.0011 54.1393C44.0761 54.1393 54.6753 46.1179 54.6753 36.2231C54.6753 26.3283 44.0761 18.307 31.0011 18.307C17.9262 18.307 7.32695 26.3283 7.32695 36.2231C7.32695 46.1179 17.9262 54.1393 31.0011 54.1393Z" fill="var(--fill-0, #BEBEBE)"/>
<path id="Vector_4" d="M25.2249 31.3154C26.1852 31.3154 26.9638 30.5369 26.9638 29.5766C26.9638 28.6162 26.1852 27.8377 25.2249 27.8377C24.2645 27.8377 23.486 28.6162 23.486 29.5766C23.486 30.5369 24.2645 31.3154 25.2249 31.3154Z" fill="var(--fill-0, #363636)"/>
<path id="Vector_5" d="M42.5917 31.3154C43.5521 31.3154 44.3306 30.5369 44.3306 29.5766C44.3306 28.6162 43.5521 27.8377 42.5917 27.8377C41.6314 27.8377 40.8528 28.6162 40.8528 29.5766C40.8528 30.5369 41.6314 31.3154 42.5917 31.3154Z" fill="var(--fill-0, #363636)"/>
<path id="Vector_6" d="M8.50685 15.7053V30.4906L27.4331 19.5628L14.6281 12.1713C11.9073 10.6012 8.50451 12.565 8.50451 15.7053H8.50685Z" fill="var(--fill-0, #BEBEBE)"/>
<path id="Vector_7" d="M44.8265 11.9801L32.0215 19.3715L50.9478 30.2994V15.5141C50.9478 12.3715 47.5473 10.4076 44.8241 11.9801H44.8265Z" fill="var(--fill-0, #BEBEBE)"/>
<path id="Vector_8" d="M10.0989 17.2641V23.0807C10.0989 23.9033 10.9894 24.4188 11.7042 24.0064L17.6989 20.545C18.4113 20.1326 18.4113 19.1038 17.6989 18.6936L12.6604 15.7853C11.5214 15.1291 10.0989 15.9494 10.0989 17.2641Z" fill="var(--fill-0, #363636)"/>
<path id="Vector_9" d="M46.7983 15.5944L41.7598 18.5027C41.0473 18.9151 41.0473 19.9439 41.7598 20.3541L47.7545 23.8154C48.4669 24.2279 49.3598 23.7123 49.3598 22.8897V17.0731C49.3598 15.7584 47.9373 14.9382 46.7983 15.5944Z" fill="var(--fill-0, #363636)"/>
<path id="Vector_10" d="M34.94 34.6376L36.25 32.369C36.7093 31.5746 36.1352 30.5809 35.2165 30.5809H32.5965C31.6778 30.5809 31.1037 31.5746 31.563 32.369L32.873 34.6376C33.3323 35.432 34.4783 35.432 34.9376 34.6376H34.94Z" fill="var(--fill-0, #363636)"/>
<path id="Vector_11" d="M35.7922 36.6279L33.9081 34.6453L32.0215 36.6279" stroke="var(--stroke-0, #363636)" stroke-width="2.34351" stroke-linecap="round" stroke-linejoin="round"/>
</g>
</svg>
