<svg preserveAspectRatio="none" width="100%" height="100%" overflow="visible" style="display: block;" viewBox="0 0 62.0002 62.002" fill="none" xmlns="http://www.w3.org/2000/svg">
<g id="Avatar 3">
<path id="Vector" d="M62.0002 31.0002C62.0002 41.0515 57.2171 49.9827 49.8093 55.6469C44.595 59.6333 38.073 62.0002 31.0002 62.0002C23.9275 62.0002 17.4078 59.6309 12.1912 55.6469C4.77865 49.9827 0.000234604 41.0515 0.000234604 31.0002C0.000234604 13.8808 13.8785 0.000219193 31.0002 0.000219193C48.1219 0.000219193 62.0002 13.8808 62.0002 31.0002Z" fill="var(--fill-0, #D7D7D7)"/>
<path id="Vector_2" d="M49.8074 55.6487C44.5931 59.635 38.0711 62.002 30.9984 62.002C23.9256 62.002 17.406 59.6327 12.1893 55.6487L16.6842 49.5322H45.3102L49.8051 55.6487H49.8074Z" fill="var(--fill-0, #363636)"/>
<path id="Vector_3" d="M31.1118 53.4473C44.1622 53.4473 54.7415 44.2584 54.7415 32.9228C54.7415 21.5874 44.1622 12.3983 31.1118 12.3983C18.0615 12.3983 7.4822 21.5874 7.4822 32.9228C7.4822 44.2584 18.0615 53.4473 31.1118 53.4473Z" fill="var(--fill-0, #BEBEBE)"/>
<path id="Vector_4" d="M28.4798 31.9769L31.6037 26.5658C32.0255 25.8346 31.4983 24.9206 30.6546 24.9206H24.4068C23.5631 24.9206 23.0335 25.8346 23.4577 26.5658L26.5816 31.9769C27.0034 32.7081 28.0603 32.7081 28.4822 31.9769H28.4798Z" fill="var(--fill-0, #363636)"/>
<path id="Vector_5" d="M24.178 21.2084L15.6757 34.8007C14.0774 37.3552 10.7122 38.1309 8.15773 36.5326L5.55876 34.9062C2.78404 33.172 2.15129 29.4013 4.20655 26.8539L14.293 14.3559C15.9265 12.3311 18.7645 11.7429 21.0681 12.9498L22.0829 13.4818C24.8974 14.9559 25.863 18.5133 24.178 21.2084Z" fill="var(--fill-0, #BEBEBE)"/>
<path id="Vector_6" d="M39.8512 21.8451L48.7308 35.2805C50.3993 37.8044 53.7998 38.4981 56.3237 36.8295L58.8922 35.1305C61.6341 33.319 62.1755 29.5178 60.0476 27.0126L49.6049 14.7161C47.9129 12.7242 45.0491 12.2039 42.7665 13.4741L41.7611 14.0342C38.9724 15.5856 38.0936 19.1829 39.8535 21.8451H39.8512Z" fill="var(--fill-0, #BEBEBE)"/>
<path id="Vector_7" d="M19.1741 26.2918C20.2069 26.2918 21.0442 25.4547 21.0442 24.4217C21.0442 23.3889 20.2069 22.5515 19.1741 22.5515C18.1413 22.5515 17.304 23.3889 17.304 24.4217C17.304 25.4547 18.1413 26.2918 19.1741 26.2918Z" fill="var(--fill-0, #363636)"/>
<path id="Vector_8" d="M37.8171 26.2887C38.8499 26.2887 39.6872 25.4516 39.6872 24.4186C39.6872 23.3858 38.8499 22.5484 37.8171 22.5484C36.7843 22.5484 35.947 23.3858 35.947 24.4186C35.947 25.4516 36.7843 26.2887 37.8171 26.2887Z" fill="var(--fill-0, #363636)"/>
<path id="Vector_9" d="M27.5319 32.1366C27.5319 33.1982 26.6719 34.0583 25.6103 34.0583C24.5486 34.0583 23.6886 33.1982 23.6886 32.1366" stroke="var(--stroke-0, #363636)" stroke-width="2.34351" stroke-linecap="round" stroke-linejoin="round"/>
<path id="Vector_10" d="M31.372 32.1366C31.372 33.1982 30.5119 34.0583 29.4503 34.0583C28.3887 34.0583 27.5286 33.1982 27.5286 32.1366" stroke="var(--stroke-0, #363636)" stroke-width="2.34351" stroke-linecap="round" stroke-linejoin="round"/>
</g>
</svg>
