<svg preserveAspectRatio="none" width="100%" height="100%" overflow="visible" style="display: block;" viewBox="0 0 62 62.0045" fill="none" xmlns="http://www.w3.org/2000/svg">
<g id="Avatar 2">
<path id="Vector" d="M62 31C62 41.2669 57.0083 50.3668 49.3193 56.0076C44.187 59.7737 37.8524 62 31 62C24.1476 62 17.8107 59.776 12.6784 56.0076C4.99169 50.3668 0 41.2669 0 31C0 13.8806 13.8783 0 31 0C48.1217 0 62 13.8806 62 31Z" fill="var(--fill-0, #FFDC45)"/>
<path id="Vector_2" d="M49.32 56.0121C44.1877 59.7781 37.8532 62.0045 31.0007 62.0045C24.1483 62.0045 17.8114 59.7805 12.6791 56.0121L17.0029 50.1299H44.9985L49.32 56.0121Z" fill="var(--fill-0, black)"/>
<path id="Vector_3" d="M31.4361 53.9555C44.1992 53.9555 54.5455 44.9688 54.5455 33.8833C54.5455 22.7978 44.1992 13.8111 31.4361 13.8111C18.6731 13.8111 8.32675 22.7978 8.32675 33.8833C8.32675 44.9688 18.6731 53.9555 31.4361 53.9555Z" fill="var(--fill-0, #FF6A8D)"/>
<path id="Vector_4" d="M11.2584 35.705C14.5033 35.705 17.1336 33.4198 17.1336 30.6008C17.1336 27.7818 14.5033 25.4966 11.2584 25.4966C8.01383 25.4966 5.38324 27.7818 5.38324 30.6008C5.38324 33.4198 8.01383 35.705 11.2584 35.705Z" fill="var(--fill-0, #FF6A8D)"/>
<path id="Vector_5" d="M54.5448 39.965C57.7896 39.965 60.42 37.6798 60.42 34.8608C60.42 32.0418 57.7896 29.7566 54.5448 29.7566C51.3002 29.7566 48.6696 32.0418 48.6696 34.8608C48.6696 37.6798 51.3002 39.965 54.5448 39.965Z" fill="var(--fill-0, #FF6A8D)"/>
<path id="Vector_6" d="M57.4442 25.5657C59.4814 19.4055 52.4755 11.5484 41.7956 8.01651C31.116 4.4846 20.8066 6.61509 18.7694 12.775C16.7322 18.9352 23.7383 26.7923 34.418 30.3242C45.0978 33.8563 55.407 31.7258 57.4442 25.5657Z" fill="var(--fill-0, black)"/>
<path id="Vector_7" d="M20.5564 21.5829C24.1305 16.6219 24.9734 11.1205 22.4394 9.29491C19.9056 7.46931 14.954 10.0111 11.3801 14.9718C7.80602 19.9328 6.96305 25.4342 9.4971 27.2598C12.0311 29.0854 16.9825 26.5436 20.5564 21.5829Z" fill="var(--fill-0, black)"/>
<path id="Vector_8" d="M18.9627 35.9276C19.9737 35.9276 20.793 35.1083 20.793 34.0973C20.793 33.0865 19.9737 32.267 18.9627 32.267C17.952 32.267 17.1324 33.0865 17.1324 34.0973C17.1324 35.1083 17.952 35.9276 18.9627 35.9276Z" fill="var(--fill-0, black)"/>
<path id="Vector_9" d="M33.8875 36.6914C34.8985 36.6914 35.7178 35.8719 35.7178 34.8611C35.7178 33.8504 34.8985 33.0308 33.8875 33.0308C32.8768 33.0308 32.0572 33.8504 32.0572 34.8611C32.0572 35.8719 32.8768 36.6914 33.8875 36.6914Z" fill="var(--fill-0, black)"/>
<path id="Vector_10" d="M29.6078 39.9642C29.6078 41.9515 27.9978 43.5615 26.0105 43.5615C24.0232 43.5615 22.4132 41.9515 22.4132 39.9642" stroke="var(--stroke-0, black)" stroke-width="2.34351" stroke-linecap="round" stroke-linejoin="round"/>
</g>
</svg>
